<?xml version="1.0" encoding="UTF-8"?>
<svg id="Layer_2" data-name="Layer 2" xmlns="http://www.w3.org/2000/svg" viewBox="0 0 292.69 308.38">
  <g id="Layer_1-2" data-name="Layer 1">
    <g>
      <g id="rndjoU.tif">
        <g>
          <path d="M123.2,90.46c-8.33,8.05-20.1,8.95-29.57,2.56-5.64-3.81-10.07-8.96-13.38-15.18-8.48-15.94-10.33-34.99-5.15-52.31C79.01,12.43,88.98-.66,103.33.05c12.51.62,22.26,11.52,27.35,22.57,6.95,15.09,8.35,32.44,3.76,48.41-2.15,7.49-5.66,14.04-11.24,19.44Z" style="fill: #173d44;"/>
          <path d="M195.79,94.87c-7.91,3.86-16.72,2.95-23.61-2.18-8.29-6.17-13.19-16.56-15.21-26.72-2.71-13.63-1.4-27.66,3.79-40.54,4.11-10.21,11.62-20.28,22.07-24.08,7.12-2.59,14.74-1.36,20.86,3.1,8.42,6.13,13.37,16.66,15.4,26.9,2.64,13.35,1.44,27.03-3.47,39.71-3.71,9.57-10.4,19.22-19.83,23.82Z" style="fill: #173d44;"/>
          <path d="M54.53,131.97c-7.69,8.38-19.12,10.36-29.13,5.27-6.61-3.35-11.86-8.55-15.88-14.98C.52,107.87-2.34,90.05,1.97,73.64c1.75-6.65,4.8-12.46,9.39-17.28,7.79-8.17,19.28-9.99,29.26-4.67,6.54,3.49,11.71,8.72,15.68,15.19,8.42,13.74,11.28,30.48,7.75,46.22-1.61,7.16-4.57,13.47-9.53,18.87Z" style="fill: #173d44;"/>
          <path d="M267.33,137.21c-12.74,6.42-25.71,1.52-33.16-10.46-14.53-23.36-5.56-63.24,18.47-75.34,9.92-5,21.11-3.03,28.74,5.01,4.71,4.96,7.81,11.03,9.52,17.89,4.02,16.15,1.2,33.51-7.54,47.67-4.02,6.51-9.3,11.84-16.02,15.23Z" style="fill: #173d44;"/>
        </g>
      </g>
      <path d="M162.59,231.62c-24.32-4.21-36.1-38.13-34.32-70.07.44-7.87-5.84-14.48-13.72-14.48h-53.14c-12.51,0-22.91,9.74-23.59,22.23,0,.08,0,.15-.01.23-3,55.84,17.8,112.45,71.92,132.86,28.51,10.75,59.79,6.68,85.36-9.5,4.68-2.96,10.8-2.26,14.56,1.79,8.26,8.91,18.89,12.58,31.1,11.95,20.52-1.06,34.25-16.9,33.42-38.2-2.29-26.72-2.99-52.81-1.04-79.97.47-6.61-.5-14.01-1.98-20.22-2.91-12.27-13.87-19.16-26.7-18.79-18.88.54-37.02,1.02-56.12-.05-8.12-.45-17.01,0-24.5,1.63-13.15,2.86-19.74,13.2-20.62,26.95-1.06,16.48,9.39,30.62,25.97,30.92h0c14.2.25,15.41,21.01,1.33,22.88-2.56.34-5.23.3-7.93-.17Z" style="fill: #173d44;"/>
    </g>
  </g>
</svg>